<svg xmlns="http://www.w3.org/2000/svg" width="421.68999999999994" height="35" viewBox="0 0 421.68999999999994 35"><rect class="svg__rect" x="0" y="0" width="127.85" height="35" fill="#31C4F3"/><rect class="svg__rect" x="125.85" y="0" width="295.84" height="35" fill="#389AD5"/><path class="svg__text" d="M13.95 18.19L13.95 18.19L13.95 17.39Q13.95 16.19 14.38 15.27Q14.80 14.35 15.60 13.85Q16.40 13.35 17.45 13.35L17.45 13.35Q18.86 13.35 19.73 14.12Q20.59 14.89 20.73 16.29L20.73 16.29L19.25 16.29Q19.14 15.37 18.71 14.96Q18.28 14.55 17.45 14.55L17.45 14.55Q16.48 14.55 15.97 15.26Q15.45 15.96 15.44 17.33L15.44 17.33L15.44 18.09Q15.44 19.47 15.93 20.20Q16.43 20.92 17.38 20.92L17.38 20.92Q18.25 20.92 18.69 20.53Q19.13 20.14 19.25 19.22L19.25 19.22L20.73 19.22Q20.60 20.59 19.72 21.35Q18.84 22.12 17.38 22.12L17.38 22.12Q16.36 22.12 15.59 21.63Q14.81 21.15 14.39 20.26Q13.97 19.37 13.95 18.19ZM24.77 18.00L24.77 18.00L24.77 17.52Q24.77 16.28 25.21 15.32Q25.65 14.37 26.46 13.86Q27.27 13.35 28.31 13.35Q29.35 13.35 30.16 13.85Q30.96 14.35 31.40 15.29Q31.84 16.23 31.85 17.48L31.85 17.48L31.85 17.96Q31.85 19.21 31.41 20.16Q30.98 21.10 30.18 21.61Q29.37 22.12 28.32 22.12L28.32 22.12Q27.28 22.12 26.47 21.61Q25.66 21.10 25.22 20.17Q24.78 19.23 24.77 18.00ZM26.25 17.46L26.25 17.96Q26.25 19.36 26.80 20.13Q27.35 20.90 28.32 20.90L28.32 20.90Q29.31 20.90 29.84 20.15Q30.37 19.40 30.37 17.96L30.37 17.96L30.37 17.51Q30.37 16.09 29.83 15.34Q29.29 14.58 28.31 14.58L28.31 14.58Q27.35 14.58 26.81 15.33Q26.26 16.09 26.25 17.46L26.25 17.46ZM37.80 22L36.31 22L36.31 13.47L37.80 13.47L41.61 19.54L41.61 13.47L43.08 13.47L43.08 22L41.60 22L37.80 15.95L37.80 22ZM49.50 14.66L46.87 14.66L46.87 13.47L53.63 13.47L53.63 14.66L50.97 14.66L50.97 22L49.50 22L49.50 14.66ZM58.17 22L56.63 22L59.85 13.47L61.18 13.47L64.41 22L62.86 22L62.16 20.01L58.86 20.01L58.17 22ZM60.51 15.28L59.28 18.82L61.75 18.82L60.51 15.28ZM68.09 18.19L68.09 18.19L68.09 17.39Q68.09 16.19 68.52 15.27Q68.95 14.35 69.75 13.85Q70.55 13.35 71.60 13.35L71.60 13.35Q73.01 13.35 73.87 14.12Q74.73 14.89 74.87 16.29L74.87 16.29L73.40 16.29Q73.29 15.37 72.86 14.96Q72.43 14.55 71.60 14.55L71.60 14.55Q70.63 14.55 70.11 15.26Q69.59 15.96 69.58 17.33L69.58 17.33L69.58 18.09Q69.58 19.47 70.08 20.20Q70.57 20.92 71.53 20.92L71.53 20.92Q72.40 20.92 72.84 20.53Q73.28 20.14 73.40 19.22L73.40 19.22L74.87 19.22Q74.74 20.59 73.87 21.35Q72.99 22.12 71.53 22.12L71.53 22.12Q70.51 22.12 69.73 21.63Q68.96 21.15 68.53 20.26Q68.11 19.37 68.09 18.19ZM80.87 14.66L78.23 14.66L78.23 13.47L85.00 13.47L85.00 14.66L82.34 14.66L82.34 22L80.87 22L80.87 14.66ZM96.21 22L94.73 22L94.73 13.47L96.65 13.47L99.11 20.01L101.57 13.47L103.48 13.47L103.48 22L102.01 22L102.01 19.19L102.15 15.43L99.64 22L98.57 22L96.06 15.43L96.21 19.19L96.21 22ZM113.80 22L108.22 22L108.22 13.47L113.76 13.47L113.76 14.66L109.71 14.66L109.71 17.02L113.21 17.02L113.21 18.19L109.71 18.19L109.71 20.82L113.80 20.82L113.80 22Z" fill="#FFFFFF"/><path class="svg__text" d="M139.61 17.80L139.61 17.80Q139.61 16.54 140.21 15.54Q140.81 14.55 141.86 13.99Q142.91 13.43 144.23 13.43L144.23 13.43Q145.38 13.43 146.30 13.84Q147.23 14.25 147.84 15.02L147.84 15.02L146.33 16.39Q145.52 15.40 144.35 15.40L144.35 15.40Q143.66 15.40 143.13 15.70Q142.60 16 142.30 16.54Q142.01 17.09 142.01 17.80L142.01 17.80Q142.01 18.51 142.30 19.05Q142.60 19.60 143.13 19.90Q143.66 20.20 144.35 20.20L144.35 20.20Q145.52 20.20 146.33 19.22L146.33 19.22L147.84 20.58Q147.23 21.35 146.31 21.76Q145.38 22.17 144.23 22.17L144.23 22.17Q142.91 22.17 141.86 21.61Q140.81 21.05 140.21 20.05Q139.61 19.06 139.61 17.80ZM151.95 17.80L151.95 17.80Q151.95 16.55 152.55 15.55Q153.16 14.56 154.22 14.00Q155.28 13.43 156.61 13.43L156.61 13.43Q157.94 13.43 159.01 14.00Q160.07 14.56 160.68 15.55Q161.28 16.55 161.28 17.80L161.28 17.80Q161.28 19.05 160.68 20.04Q160.07 21.04 159.01 21.60Q157.95 22.17 156.61 22.17L156.61 22.17Q155.28 22.17 154.22 21.60Q153.16 21.04 152.55 20.04Q151.95 19.05 151.95 17.80ZM154.35 17.80L154.35 17.80Q154.35 18.51 154.65 19.05Q154.95 19.60 155.47 19.90Q155.98 20.20 156.61 20.20L156.61 20.20Q157.25 20.20 157.77 19.90Q158.28 19.60 158.58 19.05Q158.88 18.51 158.88 17.80L158.88 17.80Q158.88 17.09 158.58 16.54Q158.28 16 157.77 15.70Q157.25 15.40 156.61 15.40L156.61 15.40Q155.98 15.40 155.46 15.70Q154.95 16 154.65 16.54Q154.35 17.09 154.35 17.80ZM168.34 22L166.01 22L166.01 13.60L167.97 13.60L171.68 18.07L171.68 13.60L174.00 13.60L174.00 22L172.05 22L168.34 17.52L168.34 22ZM180.96 15.48L178.38 15.48L178.38 13.60L185.90 13.60L185.90 15.48L183.33 15.48L183.33 22L180.96 22L180.96 15.48ZM191.69 22L189.26 22L192.97 13.60L195.32 13.60L199.03 22L196.56 22L195.90 20.37L192.35 20.37L191.69 22ZM194.13 15.93L193.04 18.61L195.20 18.61L194.13 15.93ZM202.76 17.80L202.76 17.80Q202.76 16.54 203.35 15.54Q203.95 14.55 205.00 13.99Q206.06 13.43 207.37 13.43L207.37 13.43Q208.53 13.43 209.45 13.84Q210.37 14.25 210.99 15.02L210.99 15.02L209.48 16.39Q208.66 15.40 207.50 15.40L207.50 15.40Q206.81 15.40 206.28 15.70Q205.74 16 205.45 16.54Q205.15 17.09 205.15 17.80L205.15 17.80Q205.15 18.51 205.45 19.05Q205.74 19.60 206.28 19.90Q206.81 20.20 207.50 20.20L207.50 20.20Q208.66 20.20 209.48 19.22L209.48 19.22L210.99 20.58Q210.38 21.35 209.45 21.76Q208.53 22.17 207.37 22.17L207.37 22.17Q206.06 22.17 205.00 21.61Q203.95 21.05 203.35 20.05Q202.76 19.06 202.76 17.80ZM217.32 15.48L214.73 15.48L214.73 13.60L222.26 13.60L222.26 15.48L219.69 15.48L219.69 22L217.32 22L217.32 15.48ZM226.20 18.96L226.20 18.96Q226.20 17.41 226.93 16.15Q227.66 14.90 229.00 14.18Q230.34 13.46 232.09 13.46L232.09 13.46Q233.76 13.46 235.06 14.14Q236.36 14.82 237.09 16.01Q237.81 17.20 237.81 18.67L237.81 18.67Q237.81 19.74 237.47 20.52Q237.13 21.29 236.54 21.69Q235.94 22.09 235.18 22.09L235.18 22.09Q234.54 22.09 234.08 21.83Q233.62 21.57 233.41 21.05L233.41 21.05Q232.82 22.09 231.47 22.09L231.47 22.09Q230.76 22.09 230.15 21.72Q229.53 21.34 229.17 20.66Q228.80 19.97 228.80 19.08L228.80 19.08Q228.80 18.19 229.16 17.51Q229.52 16.83 230.13 16.45Q230.75 16.08 231.47 16.08L231.47 16.08Q232.52 16.08 233.13 16.77L233.13 16.77L233.13 16.18L235.09 16.18L235.09 19.84Q235.09 20.22 235.23 20.39Q235.38 20.56 235.62 20.56L235.62 20.56Q236.37 20.56 236.37 18.70L236.37 18.70Q236.37 17.56 235.84 16.67Q235.31 15.78 234.33 15.29Q233.36 14.79 232.09 14.79L232.09 14.79Q230.83 14.79 229.85 15.33Q228.87 15.87 228.33 16.82Q227.79 17.78 227.79 18.96L227.79 18.96Q227.79 20.18 228.32 21.14Q228.85 22.09 229.82 22.63Q230.78 23.17 232.04 23.17L232.04 23.17Q233.32 23.17 234.43 22.64L234.43 22.64L234.87 23.92Q234.33 24.19 233.57 24.34Q232.81 24.50 232.04 24.50L232.04 24.50Q230.30 24.50 228.97 23.78Q227.65 23.05 226.92 21.79Q226.20 20.54 226.20 18.96ZM230.81 19.08L230.81 19.08Q230.81 19.73 231.13 20.10Q231.46 20.46 231.98 20.46L231.98 20.46Q232.51 20.46 232.84 20.10Q233.17 19.74 233.17 19.08L233.17 19.08Q233.17 18.43 232.84 18.07Q232.51 17.72 231.98 17.72L231.98 17.72Q231.46 17.72 231.13 18.08Q230.81 18.44 230.81 19.08ZM246.51 22L242.54 22L242.54 13.60L246.51 13.60Q247.90 13.60 248.96 14.12Q250.03 14.63 250.62 15.58Q251.21 16.53 251.21 17.80L251.21 17.80Q251.21 19.07 250.62 20.02Q250.03 20.97 248.96 21.48Q247.90 22 246.51 22L246.51 22ZM244.92 15.50L244.92 20.10L246.42 20.10Q247.50 20.10 248.15 19.49Q248.81 18.88 248.81 17.80L248.81 17.80Q248.81 16.72 248.15 16.11Q247.50 15.50 246.42 15.50L246.42 15.50L244.92 15.50ZM262.68 22L255.94 22L255.94 13.60L262.53 13.60L262.53 15.44L258.29 15.44L258.29 16.85L262.02 16.85L262.02 18.63L258.29 18.63L258.29 20.17L262.68 20.17L262.68 22ZM270.07 22L266.48 13.60L269.05 13.60L271.33 19.07L273.66 13.60L276.00 13.60L272.41 22L270.07 22ZM283.40 19.46L279.90 19.46L279.90 17.71L283.40 17.71L283.40 19.46ZM290.09 15.48L287.51 15.48L287.51 13.60L295.03 13.60L295.03 15.48L292.46 15.48L292.46 22L290.09 22L290.09 15.48ZM305.79 22L299.40 22L299.40 13.60L301.78 13.60L301.78 20.11L305.79 20.11L305.79 22ZM311.62 22L309.20 22L312.91 13.60L315.25 13.60L318.97 22L316.50 22L315.84 20.37L312.29 20.37L311.62 22ZM314.06 15.93L312.98 18.61L315.14 18.61L314.06 15.93ZM322.69 17.80L322.69 17.80Q322.69 16.54 323.29 15.54Q323.89 14.55 324.94 13.99Q325.99 13.43 327.31 13.43L327.31 13.43Q328.46 13.43 329.39 13.84Q330.31 14.25 330.92 15.02L330.92 15.02L329.41 16.39Q328.60 15.40 327.43 15.40L327.43 15.40Q326.75 15.40 326.21 15.70Q325.68 16 325.38 16.54Q325.09 17.09 325.09 17.80L325.09 17.80Q325.09 18.51 325.38 19.05Q325.68 19.60 326.21 19.90Q326.75 20.20 327.43 20.20L327.43 20.20Q328.60 20.20 329.41 19.22L329.41 19.22L330.92 20.58Q330.32 21.35 329.39 21.76Q328.46 22.17 327.31 22.17L327.31 22.17Q325.99 22.17 324.94 21.61Q323.89 21.05 323.29 20.05Q322.69 19.06 322.69 17.80ZM336.88 22L334.45 22L338.16 13.60L340.50 13.60L344.22 22L341.75 22L341.09 20.37L337.54 20.37L336.88 22ZM339.32 15.93L338.23 18.61L340.39 18.61L339.32 15.93ZM348.30 18.26L348.30 18.26L348.30 13.60L350.68 13.60L350.68 18.19Q350.68 20.20 352.28 20.20L352.28 20.20Q353.86 20.20 353.86 18.19L353.86 18.19L353.86 13.60L356.20 13.60L356.20 18.26Q356.20 20.13 355.16 21.15Q354.12 22.17 352.25 22.17L352.25 22.17Q350.38 22.17 349.34 21.15Q348.30 20.13 348.30 18.26ZM367.67 22L361.29 22L361.29 13.60L363.67 13.60L363.67 20.11L367.67 20.11L367.67 22ZM373.89 15.48L371.30 15.48L371.30 13.60L378.83 13.60L378.83 15.48L376.26 15.48L376.26 22L373.89 22L373.89 15.48ZM382.68 20.75L382.68 20.75Q382.68 20.15 383.07 19.78Q383.46 19.41 384.05 19.41L384.05 19.41Q384.65 19.41 385.03 19.78Q385.42 20.15 385.42 20.75L385.42 20.75Q385.42 21.34 385.03 21.72Q384.64 22.11 384.05 22.11L384.05 22.11Q383.47 22.11 383.08 21.72Q382.68 21.34 382.68 20.75ZM396.82 22L390.08 22L390.08 13.60L396.67 13.60L396.67 15.44L392.43 15.44L392.43 16.85L396.16 16.85L396.16 18.63L392.43 18.63L392.43 20.17L396.82 20.17L396.82 22ZM401.55 18.26L401.55 18.26L401.55 13.60L403.93 13.60L403.93 18.19Q403.93 20.20 405.53 20.20L405.53 20.20Q407.11 20.20 407.11 18.19L407.11 18.19L407.11 13.60L409.45 13.60L409.45 18.26Q409.45 20.13 408.41 21.15Q407.37 22.17 405.50 22.17L405.50 22.17Q403.63 22.17 402.59 21.15Q401.55 20.13 401.55 18.26Z" fill="#FFFFFF" x="138.85"/></svg>